<svg xmlns="http://www.w3.org/2000/svg" xmlns:xlink="http://www.w3.org/1999/xlink" viewBox="0,0,256,256"><g fill="gray" fill-rule="nonzero" stroke="none" stroke-width="1" stroke-linecap="butt" stroke-linejoin="miter" stroke-miterlimit="10" stroke-dasharray="" stroke-dashoffset="0" font-family="none" font-weight="none" font-size="none" text-anchor="none" style="mix-blend-mode: normal"><g transform="scale(4,4)"><path d="M40.227,12c10.919,0 11.773,0.854 11.773,11.773v16.453c0,10.919 -0.854,11.774 -11.773,11.774h-16.454c-10.918,0 -11.773,-0.855 -11.773,-11.773v-16.454c0,-10.919 0.855,-11.773 11.773,-11.773zM42.732,29.737v-4.196c0,0 -2.218,0.011 -4.091,-1.705c-1.574,-1.442 -1.705,-4.143 -1.705,-4.143h-4.196c0,0 0,14.318 0,16.6c0,2.281 -1.985,3.462 -3.409,3.462c-1.073,0 -3.514,-0.841 -3.514,-3.488c0,-2.778 2.806,-3.488 3.54,-3.488c0.734,0 1.023,0.157 1.023,0.157v-4.429c0,0 -0.682,-0.065 -1.18,-0.082c-4.235,-0.143 -7.736,3.657 -7.736,7.841c0,3.535 2.765,7.815 7.815,7.815c5.379,0 7.841,-4.486 7.841,-7.789c0,-2.413 0,-8.234 0,-8.234c0,0 1.547,0.865 2.806,1.259c1.259,0.394 2.806,0.42 2.806,0.42z"></path></g></g></svg>